<svg width="40" height="40" viewBox="0 0 40 40" fill="none" xmlns="http://www.w3.org/2000/svg">
<g filter="url(#filter0_i_1882_873)">
<mask id="path-1-inside-1_1882_873" fill="white">
<path d="M0 8C0 3.58172 3.58172 0 8 0H32C36.4183 0 40 3.58172 40 8V32C40 36.4183 36.4183 40 32 40H8C3.58172 40 0 36.4183 0 32V8Z"/>
</mask>
<path d="M0 8C0 3.58172 3.58172 0 8 0H32C36.4183 0 40 3.58172 40 8V32C40 36.4183 36.4183 40 32 40H8C3.58172 40 0 36.4183 0 32V8Z" fill="url(#paint0_radial_1882_873)" fill-opacity="0.2"/>
<g clip-path="url(#paint1_diamond_1882_873_clip_path)" data-figma-skip-parse="true" mask="url(#path-1-inside-1_1882_873)"><g transform="matrix(0.02 0.0215 -0.0215 0.02 20 20)"><rect x="0" y="0" width="1010.73" height="1010.73" fill="url(#paint1_diamond_1882_873)" opacity="1" shape-rendering="crispEdges"/><rect x="0" y="0" width="1010.73" height="1010.73" transform="scale(1 -1)" fill="url(#paint1_diamond_1882_873)" opacity="1" shape-rendering="crispEdges"/><rect x="0" y="0" width="1010.73" height="1010.73" transform="scale(-1 1)" fill="url(#paint1_diamond_1882_873)" opacity="1" shape-rendering="crispEdges"/><rect x="0" y="0" width="1010.73" height="1010.73" transform="scale(-1)" fill="url(#paint1_diamond_1882_873)" opacity="1" shape-rendering="crispEdges"/></g></g><path d="M8 0V1H32V0V-1H8V0ZM40 8H39V32H40H41V8H40ZM32 40V39H8V40V41H32V40ZM0 32H1V8H0H-1V32H0ZM8 40V39C4.13401 39 1 35.866 1 32H0H-1C-1 36.9706 3.02944 41 8 41V40ZM40 32H39C39 35.866 35.866 39 32 39V40V41C36.9706 41 41 36.9706 41 32H40ZM32 0V1C35.866 1 39 4.13401 39 8H40H41C41 3.02944 36.9706 -1 32 -1V0ZM8 0V-1C3.02944 -1 -1 3.02944 -1 8H0H1C1 4.13401 4.13401 1 8 1V0Z" data-figma-gradient-fill="{&#34;type&#34;:&#34;GRADIENT_DIAMOND&#34;,&#34;stops&#34;:[{&#34;color&#34;:{&#34;r&#34;:1.0,&#34;g&#34;:1.0,&#34;b&#34;:1.0,&#34;a&#34;:1.0},&#34;position&#34;:0.0},{&#34;color&#34;:{&#34;r&#34;:1.0,&#34;g&#34;:1.0,&#34;b&#34;:1.0,&#34;a&#34;:0.0},&#34;position&#34;:1.0}],&#34;transform&#34;:{&#34;m00&#34;:40.0,&#34;m01&#34;:-43.0,&#34;m02&#34;:21.499998092651367,&#34;m10&#34;:43.0,&#34;m11&#34;:40.0,&#34;m12&#34;:-21.499998092651367},&#34;opacity&#34;:1.0,&#34;blendMode&#34;:&#34;NORMAL&#34;,&#34;stopsVar&#34;:[{&#34;color&#34;:{&#34;r&#34;:1.0,&#34;g&#34;:1.0,&#34;b&#34;:1.0,&#34;a&#34;:1.0},&#34;position&#34;:0.0},{&#34;color&#34;:{&#34;r&#34;:1.0,&#34;g&#34;:1.0,&#34;b&#34;:1.0,&#34;a&#34;:0.0},&#34;position&#34;:1.0}],&#34;visible&#34;:true}" mask="url(#path-1-inside-1_1882_873)"/>
<path d="M8 1.25H32C35.7279 1.25 38.75 4.27208 38.75 8V32C38.75 35.7279 35.7279 38.75 32 38.75H8C4.27208 38.75 1.25 35.7279 1.25 32V8C1.25 4.27208 4.27208 1.25 8 1.25Z" stroke-width="0.5" stroke="url(#paint2_linear_1882_873)"/>
</g>
<defs>
<filter id="filter0_i_1882_873" x="0" y="0" width="40" height="44" filterUnits="userSpaceOnUse" color-interpolation-filters="sRGB">
<feFlood flood-opacity="0" result="BackgroundImageFix"/>
<feBlend mode="normal" in="SourceGraphic" in2="BackgroundImageFix" result="shape"/>
<feColorMatrix in="SourceAlpha" type="matrix" values="0 0 0 0 0 0 0 0 0 0 0 0 0 0 0 0 0 0 127 0" result="hardAlpha"/>
<feOffset dy="4"/>
<feGaussianBlur stdDeviation="2"/>
<feComposite in2="hardAlpha" operator="arithmetic" k2="-1" k3="1"/>
<feColorMatrix type="matrix" values="0 0 0 0 0 0 0 0 0 0 0 0 0 0 0 0 0 0 0.5 0"/>
<feBlend mode="normal" in2="shape" result="effect1_innerShadow_1882_873"/>
</filter>
<clipPath id="paint1_diamond_1882_873_clip_path"><path d="M8 0V1H32V0V-1H8V0ZM40 8H39V32H40H41V8H40ZM32 40V39H8V40V41H32V40ZM0 32H1V8H0H-1V32H0ZM8 40V39C4.13401 39 1 35.866 1 32H0H-1C-1 36.9706 3.02944 41 8 41V40ZM40 32H39C39 35.866 35.866 39 32 39V40V41C36.9706 41 41 36.9706 41 32H40ZM32 0V1C35.866 1 39 4.13401 39 8H40H41C41 3.02944 36.9706 -1 32 -1V0ZM8 0V-1C3.02944 -1 -1 3.02944 -1 8H0H1C1 4.13401 4.13401 1 8 1V0Z"/></clipPath><radialGradient id="paint0_radial_1882_873" cx="0" cy="0" r="1" gradientTransform="matrix(37.963 93.75 -8.23045 37.963 20 20)" gradientUnits="userSpaceOnUse">
<stop stop-color="#778AB1"/>
<stop offset="1"/>
</radialGradient>
<linearGradient id="paint1_diamond_1882_873" x1="0" y1="0" x2="500" y2="500" gradientUnits="userSpaceOnUse">
<stop stop-color="white"/>
<stop offset="1" stop-color="white" stop-opacity="0"/>
</linearGradient>
<linearGradient id="paint2_linear_1882_873" x1="20" y1="0.999999" x2="55.5" y2="36.5" gradientUnits="userSpaceOnUse">
<stop stop-color="white" stop-opacity="0.1"/>
<stop offset="1" stop-color="#0E65DF"/>
</linearGradient>
</defs>
</svg>
